<?xml version="1.0" encoding="UTF-8"?>
<svg version="1.1" xmlns="http://www.w3.org/2000/svg" width="1037" height="1037">
<path d="M0 0 C342.21 0 684.42 0 1037 0 C1037 342.21 1037 684.42 1037 1037 C694.79 1037 352.58 1037 0 1037 C0 694.79 0 352.58 0 0 Z " fill="#E2031A" transform="translate(0,0)"/>
<path d="M0 0 C145.53 0 291.06 0 441 0 C441 41.91 441 83.82 441 127 C347.61 127 254.22 127 158 127 C158 147.46 158 167.92 158 189 C251.39 189 344.78 189 441 189 C441 282.06 441 375.12 441 471 C295.47 471 149.94 471 0 471 C0 429.09 0 387.18 0 344 C103.62 344 207.24 344 314 344 C314 334.1 314 324.2 314 314 C210.38 314 106.76 314 0 314 C0 210.38 0 106.76 0 0 Z " fill="#FEFCFA" transform="translate(533,534)"/>
<path d="M0 0 C145.2 0 290.4 0 440 0 C440 114.84 440 229.68 440 348 C347.27 348 254.54 348 159 348 C159 388.92 159 429.84 159 472 C106.53 472 54.06 472 0 472 C0 316.24 0 160.48 0 0 Z " fill="#E2041B" transform="translate(62,534)"/>
<path d="M0 0 C31.02 0 62.04 0 94 0 C94 134.64 94 269.28 94 408 C-30.41 408 -154.82 408 -283 408 C-283 274.02 -283 140.04 -283 2 C-252.31 2 -221.62 2 -190 2 C-190 104.96 -190 207.92 -190 314 C-127.3 314 -64.6 314 0 314 C0 210.38 0 106.76 0 0 Z " fill="#E2031A" transform="translate(376,63)"/>
<path d="M0 0 C124.74 0 249.48 0 378 0 C378 20.79 378 41.58 378 63 C284.28 63 190.56 63 94 63 C94 104.58 94 146.16 94 189 C187.39 189 280.78 189 377 189 C377 261.27 377 333.54 377 408 C252.59 408 128.18 408 0 408 C0 387.54 0 367.08 0 346 C103.62 346 207.24 346 314 346 C314 314.65 314 283.3 314 251 C210.38 251 106.76 251 0 251 C0 168.17 0 85.34 0 0 Z " fill="#E2031A" transform="translate(565,566)"/>
<path d="M0 0 C124.41 0 248.82 0 377 0 C377 31.02 377 62.04 377 94 C283.61 94 190.22 94 94 94 C94 135.58 94 177.16 94 220 C166.6 220 239.2 220 314 220 C314 251.02 314 282.04 314 314 C241.4 314 168.8 314 94 314 C94 345.02 94 376.04 94 408 C62.98 408 31.96 408 0 408 C0 273.36 0 138.72 0 0 Z " fill="#E2031A" transform="translate(565,63)"/>
<path d="M0 0 C52.47 0 104.94 0 159 0 C159 103.62 159 207.24 159 314 C199.59 314 240.18 314 282 314 C282 210.38 282 106.76 282 0 C334.14 0 386.28 0 440 0 C440 155.76 440 311.52 440 472 C294.8 472 149.6 472 0 472 C0 316.24 0 160.48 0 0 Z M314 32 C314 135.62 314 239.24 314 346 C251.3 346 188.6 346 124 346 C124 243.04 124 140.08 124 34 C93.31 34 62.62 34 31 34 C31 167.98 31 301.96 31 440 C155.41 440 279.82 440 408 440 C408 305.36 408 170.72 408 32 C376.98 32 345.96 32 314 32 Z " fill="#FEFCFB" transform="translate(62,31)"/>
<path d="M0 0 C145.53 0 291.06 0 441 0 C441 52.14 441 104.28 441 158 C347.61 158 254.22 158 158 158 C158 178.79 158 199.58 158 221 C230.6 221 303.2 221 378 221 C378 272.81 378 324.62 378 378 C305.4 378 232.8 378 158 378 C158 409.35 158 440.7 158 473 C105.86 473 53.72 473 0 473 C0 316.91 0 160.82 0 0 Z M32 32 C32 166.64 32 301.28 32 440 C63.02 440 94.04 440 126 440 C126 408.98 126 377.96 126 346 C198.6 346 271.2 346 346 346 C346 314.98 346 283.96 346 252 C273.4 252 200.8 252 126 252 C126 210.42 126 168.84 126 126 C219.39 126 312.78 126 409 126 C409 94.98 409 63.96 409 32 C284.59 32 160.18 32 32 32 Z " fill="#FEFBF9" transform="translate(533,31)"/>
<path d="M0 0 C145.2 0 290.4 0 440 0 C440 114.84 440 229.68 440 348 C347.27 348 254.54 348 159 348 C159 388.92 159 429.84 159 472 C106.53 472 54.06 472 0 472 C0 316.24 0 160.48 0 0 Z M31 32 C31 167.3 31 302.6 31 442 C62.35 442 93.7 442 126 442 C126 399.76 126 357.52 126 314 C219.39 314 312.78 314 409 314 C409 220.94 409 127.88 409 32 C284.26 32 159.52 32 31 32 Z " fill="#FEFDFB" transform="translate(62,534)"/>
<path d="M0 0 C62.37 0 124.74 0 189 0 C189 51.81 189 103.62 189 157 C126.63 157 64.26 157 0 157 C0 105.19 0 53.38 0 0 Z " fill="#FEFDFB" transform="translate(187,629)"/>
<path d="M0 0 C40.59 0 81.18 0 123 0 C123 31.02 123 62.04 123 94 C82.41 94 41.82 94 0 94 C0 62.98 0 31.96 0 0 Z " fill="#E2031A" transform="translate(221,660)"/>
</svg>
